<svg width="540" height="540" viewBox="0 0 540 540" fill="none" xmlns="http://www.w3.org/2000/svg">
<path d="M90 368C90 363.582 93.5817 360 98 360H180V442C180 446.418 176.418 450 172 450H90V368Z" fill="#E6E5ED"/>
<path d="M0 458C0 453.582 3.58172 450 8 450H90V532C90 536.418 86.4183 540 82 540H0V458Z" fill="#E6E5ED"/>
<path d="M180 278C180 273.582 183.582 270 188 270H270V352C270 356.418 266.418 360 262 360H180V278Z" fill="#E6E5ED"/>
<path d="M270 188C270 183.582 273.582 180 278 180H360V262C360 266.418 356.418 270 352 270H270V188Z" fill="#E6E5ED"/>
<rect x="360" y="90" width="90" height="90" fill="#E6E5ED"/>
<rect x="270" width="90" height="90" fill="#E6E5ED"/>
<rect x="360" width="90" height="90" fill="#E6E5ED"/>
<path d="M450 0H532C536.418 0 540 3.58172 540 8V90H450V0Z" fill="#E6E5ED"/>
<rect x="450" y="90" width="90" height="90" fill="#E6E5ED"/>
<rect x="450" y="180" width="90" height="90" fill="#E6E5ED"/>
<path d="M450 270H540V360H458C453.582 360 450 356.418 450 352V270Z" fill="#E6E5ED"/>
<path d="M180 0H270V90H188C183.582 90 180 86.4183 180 82V0Z" fill="#E6E5ED"/>
</svg>
